<svg width="250" height="250" viewBox="0 0 250 250" fill="none" xmlns="http://www.w3.org/2000/svg">
<path d="M23.0958 42H54.6407V50.1917H27.1917V71.6002H19V46.0958C19 43.8414 20.8414 42 23.0958 42ZM49.8392 69.9309H64.0542V181.069H49.8392V69.9309ZM138.45 69.9309H148.604V181.069H138.45V69.9309ZM118.78 69.9309H126.387V181.069H118.78V69.9309ZM76.118 69.9309H80.4376V181.069H76.118V69.9309ZM186.947 69.9309H199.63V181.069H186.947V69.9309ZM160.668 69.9309H174.883V181.069H160.668V69.9309ZM92.5013 69.9309H106.716V181.069H92.5013V69.9309ZM27.1917 179.4V200.808H54.6407V209H23.0958C20.8414 209 19 207.176 19 204.904V179.4H27.1917ZM196.945 42H226.373C228.628 42 230.469 43.8414 230.469 46.0958V71.6002H222.277V50.1917H196.945V42ZM230.469 179.4V204.904C230.469 207.159 228.628 209 226.373 209H196.945V200.808H222.277V179.4H230.469Z" fill="#454545" fill-opacity="0.5"/>
</svg>
